<!DOCTYPE svg PUBLIC "-//W3C//DTD SVG 1.1//EN" "http://www.w3.org/Graphics/SVG/1.1/DTD/svg11.dtd">
<!-- Uploaded to: SVG Repo, www.svgrepo.com, Transformed by: SVG Repo Mixer Tools -->
<svg height="800px" width="800px" version="1.1" id="Capa_1" xmlns="http://www.w3.org/2000/svg" xmlns:xlink="http://www.w3.org/1999/xlink" viewBox="0 0 56.446 56.446" xml:space="preserve" fill="#26a269">
<g id="SVGRepo_bgCarrier" stroke-width="0"/>
<g id="SVGRepo_tracerCarrier" stroke-linecap="round" stroke-linejoin="round"/>
<g id="SVGRepo_iconCarrier"> <g> <g> <path style="fill:#26a269;" d="M54.045,13.515H40.746c-0.004-0.011-0.006-0.023-0.011-0.033l-2.872-6.3 c-0.244-0.535-0.777-0.878-1.365-0.878H18.489c-0.578,0-1.105,0.332-1.354,0.855l-3.031,6.356H2.401 C1.077,13.515,0,14.592,0,15.916v31.826c0,1.323,1.077,2.4,2.401,2.4h51.644c1.324,0,2.401-1.077,2.401-2.4V15.916 C56.446,14.592,55.368,13.515,54.045,13.515z M19.435,9.304h16.098l1.92,4.211H17.427L19.435,9.304z M53.446,16.515v9.705H36.773 c-1.831-2.782-4.977-4.625-8.55-4.625s-6.719,1.843-8.55,4.625H3v-9.705H53.446z M28.223,22.595c5.092,0,9.234,4.142,9.234,9.233 c0,5.093-4.143,9.235-9.234,9.235c-5.092,0-9.234-4.142-9.234-9.235C18.989,26.737,23.131,22.595,28.223,22.595z M3,47.143V27.22 h16.097c-0.704,1.387-1.109,2.95-1.109,4.608c0,5.643,4.591,10.235,10.234,10.235s10.234-4.592,10.234-10.235 c0-1.658-0.405-3.222-1.109-4.608h16.097v19.923H3z"/> <path style="fill:#26a269;" d="M39.37,24.293h11.034c0.276,0,0.5-0.224,0.5-0.5v-4.505c0-0.276-0.224-0.5-0.5-0.5H39.37 c-0.276,0-0.5,0.224-0.5,0.5v4.504C38.87,24.069,39.094,24.293,39.37,24.293z M39.87,19.788h10.034v3.504H39.87V19.788z"/> </g> </g> </g>
</svg>